<svg id="Ebene_1" data-name="Ebene 1" xmlns="http://www.w3.org/2000/svg" viewBox="0 0 14.18 12.02"><defs><style>.cls-1{fill:#ff7e00;}.cls-2{fill:#fff;}</style></defs><title>attention_icon</title><polygon class="cls-1" points="0 12.02 14.19 12.02 7.09 0 0 12.02"/><path class="cls-2" d="M6.16,10a.88.88,0,0,1,.07-.35.89.89,0,0,1,.2-.29.94.94,0,0,1,.29-.19,1,1,0,0,1,.37-.07.93.93,0,0,1,.36.07,1,1,0,0,1,.3.19.87.87,0,0,1,.2.29A.88.88,0,0,1,8,10a.9.9,0,0,1-.07.36.87.87,0,0,1-.2.29.93.93,0,0,1-.3.19,1,1,0,0,1-.36.07,1,1,0,0,1-.37-.07.88.88,0,0,1-.49-.48A.9.9,0,0,1,6.16,10ZM7.88,3.12v3a8.05,8.05,0,0,1-.06,1q-.06.48-.15,1H6.55q-.1-.5-.15-1a8,8,0,0,1-.06-1v-3Z"/></svg>