<svg id="Ebene_1" data-name="Ebene 1" xmlns="http://www.w3.org/2000/svg" viewBox="0 0 96 96"><defs><style>.cls-1{fill:#505050;}</style></defs><title>close_icon</title><path class="cls-1" d="M86.18,90.39H72.46a3.38,3.38,0,0,1-2.3-.76,6.44,6.44,0,0,1-1.41-1.71l-21.08-34q-.24.71-.5,1.35a8.94,8.94,0,0,1-.62,1.24L26.18,87.92a11.12,11.12,0,0,1-1.44,1.71,2.89,2.89,0,0,1-2.09.76H9.82L38.43,46.82,11,5.61H24.65A4,4,0,0,1,26.8,6,4,4,0,0,1,28,7.37L48.62,39.76l.59-1.41A10.43,10.43,0,0,1,50,36.87L69.17,7.61a4.74,4.74,0,0,1,1.3-1.5,2.88,2.88,0,0,1,1.71-.5H85.3L57.63,46.23Z"/></svg>