<svg id="Ebene_1" data-name="Ebene 1" xmlns="http://www.w3.org/2000/svg" viewBox="0 0 105.36 37.19"><defs><style>.cls-1{fill:#c8c8c8;}.cls-2{fill:#28285e;}</style></defs><title>iub_logo-01</title><path class="cls-1" d="M2.81,10.57h-2V2.11h2Z"/><path class="cls-1" d="M13.95,2.11v8.45H12.22V5.7q0-.17,0-.37t0-.4L10,9.28a.74.74,0,0,1-.28.31.78.78,0,0,1-.4.1H9.06a.78.78,0,0,1-.4-.1.74.74,0,0,1-.28-.31L6.13,4.93q0,.21,0,.41t0,.37v4.86H4.44V2.11H6.16l.17,0a.39.39,0,0,1,.14.09.71.71,0,0,1,.12.17L8.76,6.7q.12.22.22.46t.21.49q.1-.26.21-.5t.23-.46L11.8,2.41a.71.71,0,0,1,.12-.17.39.39,0,0,1,.14-.09l.17,0h1.72Z"/><path class="cls-1" d="M21.79,9a1.81,1.81,0,0,0,.71-.13A1.42,1.42,0,0,0,23,8.51a1.65,1.65,0,0,0,.33-.59,2.6,2.6,0,0,0,.11-.8v-5h2v5a3.91,3.91,0,0,1-.25,1.43,3.2,3.2,0,0,1-.72,1.12,3.26,3.26,0,0,1-1.14.73,4.54,4.54,0,0,1-3,0,3.26,3.26,0,0,1-1.14-.73,3.17,3.17,0,0,1-.72-1.12,4,4,0,0,1-.25-1.43v-5h2v5a2.6,2.6,0,0,0,.11.8,1.68,1.68,0,0,0,.33.6,1.4,1.4,0,0,0,.53.38A1.8,1.8,0,0,0,21.79,9ZM21.36.89a.81.81,0,0,1-.07.34.88.88,0,0,1-.2.28.93.93,0,0,1-.3.19,1,1,0,0,1-.36.07.86.86,0,0,1-.33-.07.89.89,0,0,1-.28-.19.92.92,0,0,1-.19-.28.8.8,0,0,1-.07-.34.83.83,0,0,1,.07-.34.94.94,0,0,1,.19-.28A.91.91,0,0,1,20.1.07.83.83,0,0,1,20.43,0a.93.93,0,0,1,.36.07,1,1,0,0,1,.3.19.89.89,0,0,1,.2.28A.84.84,0,0,1,21.36.89ZM24,.89a.81.81,0,0,1-.07.34.92.92,0,0,1-.19.28.87.87,0,0,1-.29.19,1,1,0,0,1-.7,0,.88.88,0,0,1-.29-.19.92.92,0,0,1-.19-.28.8.8,0,0,1-.07-.34.83.83,0,0,1,.07-.34.93.93,0,0,1,.19-.28.91.91,0,0,1,1.28,0A.94.94,0,0,1,24,.55.84.84,0,0,1,24,.89Z"/><path class="cls-1" d="M30.07,2.11a5.92,5.92,0,0,1,1.49.16,2.85,2.85,0,0,1,1,.46,1.74,1.74,0,0,1,.57.72,2.43,2.43,0,0,1,.18.95,1.85,1.85,0,0,1-.08.55,1.58,1.58,0,0,1-.26.49,2,2,0,0,1-.45.42,2.8,2.8,0,0,1-.66.33,2.34,2.34,0,0,1,1.24.66A1.7,1.7,0,0,1,33.5,8a2.42,2.42,0,0,1-.21,1,2.3,2.3,0,0,1-.61.81,2.9,2.9,0,0,1-1,.54,4.32,4.32,0,0,1-1.35.19H27V2.11ZM28.92,3.58V5.67h1a3.35,3.35,0,0,0,.59,0A1.22,1.22,0,0,0,31,5.46a.74.74,0,0,0,.28-.32,1.19,1.19,0,0,0,.1-.51,1.44,1.44,0,0,0-.08-.5A.72.72,0,0,0,31,3.81a1,1,0,0,0-.4-.17,2.73,2.73,0,0,0-.57-.05ZM30.3,9.09a1.73,1.73,0,0,0,.64-.1,1,1,0,0,0,.39-.26.86.86,0,0,0,.19-.35,1.56,1.56,0,0,0,.05-.4,1.34,1.34,0,0,0-.06-.42.69.69,0,0,0-.21-.31,1,1,0,0,0-.39-.2A2.29,2.29,0,0,0,30.29,7H28.92V9.09Z"/><path class="cls-1" d="M36.7,3.62v2h2.66V7H36.7v2h3.47v1.51H34.73V2.11h5.44V3.62Z"/><path class="cls-1" d="M48.29,10.57H46.52a.75.75,0,0,1-.71-.37l-1.4-2.45a.68.68,0,0,0-.22-.23.68.68,0,0,0-.35-.07h-.5v3.13h-2V2.11h2.75a5.65,5.65,0,0,1,1.56.19,2.94,2.94,0,0,1,1.06.53,2,2,0,0,1,.59.8,2.63,2.63,0,0,1,.19,1,2.69,2.69,0,0,1-.11.78,2.4,2.4,0,0,1-.32.68,2.48,2.48,0,0,1-.53.55,2.83,2.83,0,0,1-.73.4,1.79,1.79,0,0,1,.36.25,1.72,1.72,0,0,1,.3.35ZM44.13,6.09a2,2,0,0,0,.68-.1,1.23,1.23,0,0,0,.46-.28,1.07,1.07,0,0,0,.26-.42,1.61,1.61,0,0,0,.08-.52,1.09,1.09,0,0,0-.36-.87,1.69,1.69,0,0,0-1.12-.31h-.79V6.09Z"/><path class="cls-1" d="M51,3.62V5.76h2.89V7.28H51v3.29H49V2.11h5.44V3.62Z"/><path class="cls-1" d="M60.68,9v1.57h-5.1V2.11h2V9Z"/><path class="cls-1" d="M65,9a1.8,1.8,0,0,0,.7-.13,1.43,1.43,0,0,0,.53-.37,1.66,1.66,0,0,0,.33-.59,2.6,2.6,0,0,0,.11-.8v-5h2v5a3.91,3.91,0,0,1-.25,1.43,3.2,3.2,0,0,1-.72,1.12,3.26,3.26,0,0,1-1.14.73,4.54,4.54,0,0,1-3,0,3.26,3.26,0,0,1-1.14-.73,3.17,3.17,0,0,1-.72-1.12,4,4,0,0,1-.25-1.43v-5h2v5a2.6,2.6,0,0,0,.11.8,1.68,1.68,0,0,0,.33.6,1.41,1.41,0,0,0,.53.38A1.81,1.81,0,0,0,65,9Z"/><path class="cls-1" d="M76.27,3.67H73.89v6.9h-2V3.67H69.55V2.11h6.72Z"/><path class="cls-1" d="M79.23,3.62v2h2.66V7H79.23v2H82.7v1.51H77.26V2.11H82.7V3.62Z"/><path class="cls-1" d="M90,3.67H87.61v6.9h-2V3.67H83.27V2.11H90Z"/><path class="cls-1" d="M93,3.62v2h2.66V7H93v2h3.47v1.51H91V2.11h5.44V3.62Z"/><path class="cls-1" d="M105,2.11v8.45h-1a.89.89,0,0,1-.38-.07.93.93,0,0,1-.3-.25l-4-5q0,.23,0,.44t0,.4v4.53H97.63V2.11h1.25l.16,0,.13.09.15.16,4,5.08q0-.24,0-.47t0-.43V2.11Z"/><path class="cls-2" d="M12.42,29.09a3.19,3.19,0,0,1,.16,1.05c-.92.36.53.69-.14,1,.82.18-.81.33-.6.48.37.16-.58.3.08.44,0,.28-1.74.5-1,.68-1.29.09-2.71-.28-.75-.23-.76,0-2-.36-.94-.36H5.52c.28,0-.54.27-.11,0,.68-.26,1-.2,0-.61v-2.4h-5v2c1,.56.56,1.09.41,1.59.57.5-.4,1-.46,1.41s1.17.83.38,1.18c0,.35-1.25.75-.4,1,1.65.5,1.52.87,0,.87h9s-1.24-.11.51-.13a6.78,6.78,0,0,1,1.41-.15c1.12,0-.54-.12.7-.19-.05-.06.27-.15,1-.24.88-.09-.35-.19,1.17-.29.48-.1-.82-.22.28-.34.24-.12,1.06-.25.43-.39s.3-.28.78-.44c-.62-.15-.92-.31-.14-.48.58-.17-1-.34,1.08-.52-.4-.18,1.33-.37,1-.56-1.42-.19-.91-.39-.34-.6.74-.21-.61-.42.79-.63,0-.21-.23-.43-.37-.66-.28-.45,0-.79.14-1.27,0-.45,0-1.13-.13-1.13H12.41S12.42,29.08,12.42,29.09Z"/><path class="cls-2" d="M20.36,29.41v1.73c1,.56.62,1.09.11,1.59-1.27.5,0,1,.39,1.41a2.08,2.08,0,0,0-.59,1.18c.25.35,1.65.75.71,1-1.11.5-.29.87,0,.87H35.55c1.58,0,.32-.35.17-.73s.94-.93-.17-1.43c-1.35-.5-1-1.42.2-1.8.78-.38.91-1-.2-1H26.29c.8,0-.84.24-.52,0-.09-.25.59-.21.59-.61V29.19h-6Z"/><path class="cls-2" d="M38.36,29.41v1.73a3,3,0,0,0,0,.82,5.68,5.68,0,0,0,.46.78c.95.25.69.5.24.73-.72.24-.35.46-.35.68a4.55,4.55,0,0,1,.64.62c.35.2-.65.38,0,.56-1.13.35.73.75-.62,1,1.11.5-.81.87,0,.87H44c.34,0-.44-.23,0-.46-.54-.11-.58-.3.18-.46.48-.16.59-.36-.21-.56-.37-.2-.88-.42-.81-.64-.27-.22.87-.47.41-.71.91-.24,0-.5.41-.76-.15-.26-.65-.52,0-.78a5.28,5.28,0,0,1,.3-.78c.1-.26-.17-.51-.31-.75-.56-.49,1.36-.95.36-1.34v-.76h-6Z"/><path class="cls-2" d="M46.86,29.57s.23.35.59,1c.26.31-.14.64.66,1a1.57,1.57,0,0,1,.73.58.51.51,0,0,1-.11.6c.08.2.61.41.77.61.44.2.26.4.22.59,0,.38.91.74.3,1-1.28.31-.63.56-.45.74-.56.09-.12.16,0,.21.31,0,1.12.07,1,.07.65.33.36.58.76.74-.15.08.43.24.94.28-1.38,0,1.19.16.19.16h4.74c-.16,0-.18-.22-.17-.43.27-.21-1.56-.57-.58-.94-.89-.18.25-.41-1.05-.62.71-.21-.3-.45-.13-.68.46-.23-.4-.47-.57-.72a.8.8,0,0,1,.1-.74c-.46-.25-.23-.49-.38-.73a4,4,0,0,0-.57-.71c-.79-.46-1.18-.89-.69-1.26a11.24,11.24,0,0,0-.75-1.11.14.14,0,0,0-.14-.07H46.43C46.58,29.19,46.73,29.36,46.86,29.57Z"/><path class="cls-2" d="M59.18,29.53a1.26,1.26,0,0,1,0,1.67,1,1,0,0,0-.31,1.56c.22.5.64,1,.31,1.39s.11.82-.51,1.17c-.17.35-.87.74.51,1,1.4.5.33.87,0,.87h13.6c-1.48,0-.58-.36-.56-.75.3-.39-.43-1,.56-1.49.39-.52.1-1.38.24-1.77-1.11-.39.83-1-.24-1H64.38s.63-.06,0-.71c.15-.32.6-.55.12-1,.16-.44-.14-.78-.14-1.32v0H59.17S59.17,29.38,59.18,29.53Z"/><path class="cls-2" d="M75.36,29.41v1.73c0,.28.38.55.08.82-.48.27.46.53-.1.78.46.25.07.5,0,.73s-.35.46.06.68c-.54.43,0,.83.08,1.18,1.08.35.9.75-.07,1,1,.5.45.87,0,.87h5.27c-.84,0,.29-.38,0-.87.43-.25.4-.6,0-.95-.93-.17-.17-.38-.37-.58.11-.2,1.22-.42.38-.63.39-.22-.06-.45.08-.68.61-.24.55-.48-.11-.73.48-.25.52-.51.21-.78.1-.27-.14-.54-.17-.82s-.15-.56-.15-.85-.16-.58-.16-.88v-.22h-5Z"/><path class="cls-2" d="M105.36,31.14v-2H94.54c.52,0,1,1.14,1.46,1.76a2.56,2.56,0,0,0,.78,1.31c.19.22.37.41.58.62a1.67,1.67,0,0,0,.72.59c.37.2.65.38.58.56.08.18.15.35.67.51,0,.32.76.61.27.84,1.11.12.69.22,1.14.31-.62.09.19.17,0,.23s.16.2-.58.2c1.64.32.71.64.81.77a1.9,1.9,0,0,0,1,.29h2.73c-.73,0,0-.38,0-.87-.83-.25.63-.6.18-.95-.86-.35-.93-.77-.18-1.2.15-.22.25-.46,0-.69s-.05-.48.18-.74C104.12,32.24,104.36,31.7,105.36,31.14Z"/><path class="cls-2" d="M85,31.26a2.29,2.29,0,0,0,.17.76c.09.27.2.5.27.75a.47.47,0,0,0-.14.72c-.27.24.12.45-.3.67-.19.43.65.82.25,1.17-1.14.35-.2.75-.25,1,1,.5-.51.87,0,.87h4.62c.74,0-.71-.22.12-.44.56-.22.73-.58-.12-1,.45-.19.52-.43.35-.66.18-.23-.45-.48-.06-.73,0-.25-.39-.53-.18-.8a2.34,2.34,0,0,0-.11-.85c0-.29.06-.59.08-.89s-.13-.6-.14-.91c0-.6-.24-1.21-.24-1.79v0H85.09A9.45,9.45,0,0,1,85,31.26Z"/><path class="cls-1" d="M5.36,29V27.19H9.23a5.52,5.52,0,0,1,1.64.37,2.9,2.9,0,0,1,1,.67c.26.22.44,0,.55,1h5.21c0-1-.08-.39-.14-.55a4.16,4.16,0,0,0-.8-1.41,6.26,6.26,0,0,0-3.3-1.76,7.48,7.48,0,0,0,1.75-.89,5.32,5.32,0,0,0,1.19-1.13,4.21,4.21,0,0,0,.68-1.32,5,5,0,0,0,.22-1.46,6.49,6.49,0,0,0-.47-2.53,4.64,4.64,0,0,0-1.51-1.92,7.73,7.73,0,0,0-2.68-1.41,15.13,15.13,0,0,0-4-.62H.36v15h5Zm0-10.83H8.64a6.63,6.63,0,0,1,1.53.29,2.67,2.67,0,0,1,1.06.54,2,2,0,0,1,.62.9,4,4,0,0,1,.2,1.36,3.24,3.24,0,0,1-.26,1.37,2,2,0,0,1-.74.86,3.3,3.3,0,0,1-1.18.5,8.62,8.62,0,0,1-1.56.19H5.36Z"/><path class="cls-1" d="M26.36,27.19h7v-4h-7v-5h9v-4h-15v15h6Z"/><path class="cls-1" d="M44.36,28.19h1c.4,0,.71.41.93.54.05,0,.1.46.15.46h5.87c-.2-1-.43-.58-.67-.79a4.89,4.89,0,0,0-1-.68,7.6,7.6,0,0,0,1.94-1.08,6.65,6.65,0,0,0,1.42-1.49A6.42,6.42,0,0,0,55,23.33a7.17,7.17,0,0,0,.29-2.08,7,7,0,0,0-.5-2.67,5.31,5.31,0,0,0-1.59-2.12,8,8,0,0,0-2.82-1.59,14.58,14.58,0,0,0-4.17-.69H38.36v15h6Zm0-10h1.81a4.5,4.5,0,0,1,3,1,3.06,3.06,0,0,1,1,2.4A4.55,4.55,0,0,1,49.92,23a2.93,2.93,0,0,1-.7,1.14A3.31,3.31,0,0,1,48,24.9a5.36,5.36,0,0,1-1.82.29H44.36Z"/><path class="cls-1" d="M64.36,25.71V14.19h-5V27.72a10.72,10.72,0,0,0-.14,1.47h5.14Z"/><path class="cls-1" d="M80.36,27.72V14.19h-5v15h5Z"/><path class="cls-1" d="M89.36,26.29V25c0-.33.17-.68.15-1.06s0-.77,0-1.17l4.23,5.35c.26.32.57,0,.85,1h10.77v-15h-5V26.5c0,.36-.08.75-.06,1.15s0,.83.06,1.26L89.61,15.37a4.1,4.1,0,0,0-.4-.42,1.44,1.44,0,0,0-.36-.24c-.12-.06-.27-.28-.42-.3s-.35-.22-.58-.22H85.36V27.72c0,.46-.24.47-.22,1.47h4.22Z"/></svg>